<?xml version="1.0" encoding="utf-8"?>
<!-- Generator: Adobe Illustrator 19.0.1, SVG Export Plug-In . SVG Version: 6.00 Build 0)  -->
<svg version="1.1" id="Layer_1" xmlns="http://www.w3.org/2000/svg" xmlns:xlink="http://www.w3.org/1999/xlink" x="0px" y="0px"
	 width="11.3px" height="11px" viewBox="0 0 11.3 11" enable-background="new 0 0 11.3 11" xml:space="preserve">
<g id="_x30_FKmrW_3_">
	<g>
		<g>
			<path fill="#989898" d="M5.7,11c-1.4,0-2.9,0-4.3,0c-0.2,0-0.3,0-0.5-0.1c-0.2-0.1-0.3-0.2-0.5-0.3C0.2,10.4,0.1,10.2,0,9.9
				c0-0.1,0-0.1,0-0.2c0,0,0-0.1,0-0.1c0-2.7,0-5.5,0-8.2c0-0.1,0-0.1,0-0.2c0-0.4,0.2-0.8,0.6-1C0.8,0.1,1.1,0,1.3,0
				c0,0,0.1,0,0.1,0C4.2,0,7.1,0,10,0c0.2,0,0.3,0,0.5,0.1c0.4,0.2,0.7,0.5,0.8,1c0,0.1,0,0.2,0,0.2c0,1.2,0,2.3,0,3.5
				c0,1.6,0,3.3,0,4.9c0,0.2-0.1,0.5-0.2,0.7c-0.2,0.3-0.5,0.5-0.8,0.6c-0.1,0-0.2,0-0.3,0c-0.5,0-1.1,0-1.6,0C7.5,11,6.6,11,5.7,11
				z M1.3,4.6c0,0,0,0.1,0,0.1c0,1.5,0,3,0,4.4c0,0,0,0.1,0,0.1c0,0.2,0.2,0.4,0.4,0.4c0,0,0.1,0,0.1,0c2.6,0,5.1,0,7.7,0
				c0,0,0.1,0,0.1,0c0.2,0,0.3-0.1,0.4-0.3c0-0.1,0-0.1,0-0.2c0-1.5,0-3,0-4.5c0,0,0,0,0-0.1c0,0,0,0,0,0c-0.1,0-0.6,0-0.9,0
				c0,0,0,0-0.1,0c0,0,0,0,0,0.1c0,0.2,0.1,0.4,0.1,0.6c0,0.3,0,0.5,0,0.8C9,6.5,8.8,6.9,8.6,7.3C8.4,7.5,8.3,7.7,8.1,7.9
				C7.7,8.2,7.3,8.5,6.9,8.6C6.6,8.7,6.3,8.8,6,8.8c-0.4,0-0.7,0-1-0.1C4.4,8.7,4,8.5,3.6,8.2C3.4,8,3.2,7.9,3,7.7
				C2.8,7.4,2.6,7.1,2.5,6.8C2.3,6.4,2.2,5.9,2.2,5.5c0-0.1,0-0.2,0-0.3c0-0.2,0-0.3,0.1-0.5c0,0,0,0,0-0.1c0,0,0,0,0,0
				C2,4.6,1.4,4.6,1.3,4.6z M5.6,3.4c-0.1,0-0.2,0-0.3,0C4.8,3.5,4.5,3.7,4.1,4C3.9,4.2,3.7,4.5,3.6,4.8C3.5,5,3.5,5.3,3.5,5.5
				c0,0.3,0.1,0.5,0.2,0.7C3.8,6.6,4,6.9,4.3,7.1c0.5,0.4,1,0.5,1.7,0.5c0.4,0,0.8-0.2,1.1-0.4c0.2-0.2,0.4-0.4,0.6-0.7
				c0.2-0.4,0.3-0.8,0.2-1.3c0-0.3-0.1-0.6-0.3-0.8C7.3,4.1,7.1,3.9,6.9,3.7C6.5,3.5,6.1,3.4,5.6,3.4z M8.9,3.4c0.2,0,0.3,0,0.5,0
				c0.1,0,0.1,0,0.2,0c0.1,0,0.2-0.1,0.3-0.2C10,3.1,10,3,10,3c0-0.4,0-0.8,0-1.3c0,0,0,0,0,0c0-0.2-0.1-0.3-0.2-0.4
				c-0.1,0-0.1,0-0.2,0c-0.4,0-0.8,0-1.2,0c0,0-0.1,0-0.1,0C8,1.3,7.9,1.5,7.8,1.6c0,0,0,0.1,0,0.1c0,0.4,0,0.8,0,1.2c0,0,0,0,0,0.1
				c0,0.2,0.1,0.3,0.3,0.4c0,0,0.1,0,0.1,0C8.5,3.4,8.7,3.4,8.9,3.4z"/>
		</g>
	</g>
</g>
</svg>
